# xmcd CD database file
#
# Track frame offsets:
#	150
#	17507
#	31040
#	54452
#	65295
#	91332
#	119042
#	135610
#	149782
#	167287
#	188647
#	216447
#
# Disc length: 3163 seconds
#
# Revision: 0
# Processed by: cddbd v1.4PL0 Copyright (c) Steve Scherf et al.
# Submitted via: CDex 1.40Release
#
DISCID=a60c590c
DTITLE=Various Artist - CIty Link Roots and Blues Presented by Sound Advice
DYEAR=1998
DGENRE=Blues
TTITLE0=Jumpstreet 88s "Chicken Shack Boogie"
TTITLE1=The Regulators "Bloodshot Eyes"
TTITLE2=Cathy Cotton Band "Gospel is the Flip Side of the Blues"
TTITLE3=The Dillengers "Great Big Baby"
TTITLE4=Wurster "Loping Vampire Blues"
TTITLE5=The Curious Hair "Blue Sky Fool"
TTITLE6=Rod MacDonald "Ballad of a Black Haired Man"
TTITLE7=Mary Karlzen "A Long Time Ago"
TTITLE8=Marie Nofsinger "Big Rain"
TTITLE9=Rob 'Wild Boar' Moore and Clifford Hawkins "Out of Work"
TTITLE10=Jr. Drinkwater and the Thirst Quenchers "My Last $2"
TTITLE11=Billy Marcus and Brenda Alford "Homeward Bound"
EXTD=YEAR: 1998 ID3G: 0
EXTT0=
EXTT1=
EXTT2=
EXTT3=
EXTT4=
EXTT5=
EXTT6=
EXTT7=
EXTT8=
EXTT9=
EXTT10=
EXTT11=
PLAYORDER=
